<?xml version="1.0" standalone="no"?>
<!DOCTYPE svg PUBLIC "-//W3C//DTD SVG 20010904//EN"
 "http://www.w3.org/TR/2001/REC-SVG-20010904/DTD/svg10.dtd">
<svg version="1.0" xmlns="http://www.w3.org/2000/svg"
 width="225.000000pt" height="225.000000pt" viewBox="0 0 225.000000 225.000000"
 preserveAspectRatio="xMidYMid meet">

<g transform="translate(0.000000,225.000000) scale(0.100000,-0.100000)"
fill="#2dff2d" stroke="none">
<path d="M1665 2220 c-23 -11 -63 -43 -90 -70 l-50 -50 288 -287 287 -288 50
50 c89 87 113 180 70 265 -30 59 -329 356 -382 380 -56 25 -122 25 -173 0z"/>
<path d="M1355 1949 l-66 -64 301 -300 300 -300 65 65 65 65 -299 299 -300
299 -66 -64z"/>
<path d="M704 1297 c-271 -270 -494 -501 -497 -512 -2 -11 -28 -99 -57 -195
-101 -340 -140 -483 -140 -509 0 -36 38 -71 77 -71 17 0 185 45 373 100 l343
100 76 70 c42 38 265 258 496 489 l420 421 -63 62 -62 63 -479 -479 -479 -479
-179 -53 c-98 -30 -186 -54 -195 -54 -18 0 -88 68 -88 85 0 6 25 96 55 200
l56 190 475 475 474 475 -58 58 -57 57 -491 -493z"/>
<path d="M922 1096 l-475 -474 59 -13 c32 -7 65 -17 71 -22 7 -5 16 -31 19
-58 4 -27 11 -49 16 -49 5 0 222 211 481 469 l472 470 -75 75 c-41 42 -79 76
-84 76 -5 0 -223 -213 -484 -474z"/>
</g>
</svg>
